{"title":"The.Visitant.2014.BRRip.x264-MenaceIISociety","uid":12274872,"size":607751767,"categoryP":"video","categoryS":"movies","magnet":"?xt=urn:btih:0a5577f9ad5d3efe469733608093c6cdbbc3dcf0&amp;dn=The.Visitant.2014.BRRip.x264-MenaceIISociety&amp;tr=udp%3A%2F%2Ftracker.openbittorrent.com%3A80&amp;tr=udp%3A%2F%2Fopen.demonii.com%3A1337&amp;tr=udp%3A%2F%2Ftracker.coppersurfer.tk%3A6969&amp;tr=udp%3A%2F%2Fexodus.desync.com%3A6969","seeders":11,"leechers":4,"uploader":"xxxlavalxxx","files":4,"time":1440339790,"description":" &lt;a href=&quot;http://extraimago.com/image/L0U&quot; rel=&quot;nofollow&quot; target=&quot;_NEW&quot;&gt;http://extraimago.com/image/L0U&lt;/a&gt;\n &lt;a href=&quot;\nhttp://www.imdb.com/title/tt2276258/&quot; rel=&quot;nofollow&quot; target=&quot;_NEW&quot;&gt;\nhttp://www.imdb.com/title/tt2276258/&lt;/a&gt;\n\n\nvis-i-tant; n: A VISITOR, esp. one from the spirit world... Samantha plays the role of &quot;Fortune Teller,&quot; but she is a thorough skeptic about &quot;paranormal activities&quot; and all things supernatural - she certainly doesn't believe in ghosts. But one night alone in her house, she is about to learn that there are dark forces that don't care whether she believes or not; they are REAL. Or are they?... \n\nDirector: Jon Binkowski\nWriters: Jon Binkowski, Stephen DeWoody\nStars: Michele Simms, Patty Bender, Stephen DeWoody\nGenres: Thriller\nCountry: USA\nLanguage: English\n\n\nThe.Visitant.2014.BRRip.x264-MenaceIISociety\n &lt;a href=&quot;\nhttp://www.imdb.com/title/tt2276258/&quot; rel=&quot;nofollow&quot; target=&quot;_NEW&quot;&gt;\nhttp://www.imdb.com/title/tt2276258/&lt;/a&gt;\nSource: DL.1080p.BluRay.x264-WOMBAT [THANKS]\n\nGeneral\nComplete name: The.Visitant.2014.BRRip.x264-MenaceIISociety.mp4\nFormat: MPEG-4\nFormat profile: Base Media\nCodec ID: isom\nFile size: 568 MiB\nDuration: 1h 30mn\nOverall bit rate mode: Variable\nOverall bit rate: 875 Kbps\nEncoded date: UTC 2015-08-22 19:58:53\nTagged date: UTC 2015-08-22 19:58:53\n\nVideo\nID: 1\nFormat: AVC\nFormat/Info: Advanced Video Codec\nFormat profile: &lt;a class=&quot;__cf_email__&quot; href=&quot;/cdn-cgi/l/email-protection&quot; data-cfemail=&quot;fbb3929c93bbb7cfd5ca&quot;&gt;[email&amp;#160;protected]&lt;/a&gt;&lt;script data-cfhash='f9e31' type=&quot;text/javascript&quot;&gt;\n/* &lt;![CDATA[ */!function(){try{var t=&quot;currentScript&quot;in document?document.currentScript:function(){for(var t=document.getElementsByTagName(&quot;script&quot;),e=t.length;e--;)if(t[e].getAttribute(&quot;data-cfhash&quot;))return t[e]}();if(t&amp;&amp;t.previousSibling){var e,r,n,i,c=t.previousSibling,a=c.getAttribute(&quot;data-cfemail&quot;);if(a){for(e=&quot;&quot;,r=parseInt(a.substr(0,2),16),n=2;a.length-n;n+=2)i=parseInt(a.substr(n,2),16)^r,e+=String.fromCharCode(i);e=document.createTextNode(e),c.parentNode.replaceChild(e,c)}t.parentNode.removeChild(t);}}catch(u){}}()/* ]]&gt; */&lt;/script&gt;\nFormat settings, CABAC: Yes\nFormat settings, ReFrames: 3 frames\nCodec ID: avc1\nCodec ID/Info: Advanced Video Coding\nDuration: 1h 30mn\nBit rate mode: Variable\nBit rate: 753 Kbps\nMaximum bit rate: 40.0 Mbps\nWidth: 720 pixels\nHeight: 400 pixels\nDisplay aspect ratio: 16:9\nFrame rate mode: Constant\nFrame rate: 23.976 fps\nColor space: YUV\nChroma subsampling: 4:2:0\nBit depth: 8 bits\nScan type: Progressive\nBits/(Pixel*Frame): 0.109\nStream size: 488 MiB (86%)\nWriting library: x264 core 148 r2579 73ae2d1\n\nAudio\nID: 2\nFormat: AAC\nFormat/Info: Advanced Audio Codec\nFormat profile: LC\nCodec ID: 40\nDuration: 1h 30mn\nBit rate mode: Variable\nBit rate: 118 Kbps\nMaximum bit rate: 155 Kbps\nChannel(s): 2 channels\nChannel positions: Front: L R\nSampling rate: 48.0 KHz\nCompression mode: Lossy\nStream size: 76.7 MiB (14%)\nLanguage: English\nEncoded date: UTC 2015-08-22 18:48:06\nTagged date: UTC 2015-08-22 20:01:06 \n\n &lt;a href=&quot;\nhttp://extraimago.com/image/L0z&quot; rel=&quot;nofollow&quot; target=&quot;_NEW&quot;&gt;\nhttp://extraimago.com/image/L0z&lt;/a&gt; &lt;a href=&quot;\nhttp://extraimago.com/image/L00&quot; rel=&quot;nofollow&quot; target=&quot;_NEW&quot;&gt;\nhttp://extraimago.com/image/L00&lt;/a&gt; &lt;a href=&quot;\nhttp://extraimago.com/image/L0J&quot; rel=&quot;nofollow&quot; target=&quot;_NEW&quot;&gt;\nhttp://extraimago.com/image/L0J&lt;/a&gt; &lt;a href=&quot;\nhttp://extraimago.com/image/L0K&quot; rel=&quot;nofollow&quot; target=&quot;_NEW&quot;&gt;\nhttp://extraimago.com/image/L0K&lt;/a&gt; &lt;a href=&quot;\nhttp://extraimago.com/image/L0Z&quot; rel=&quot;nofollow&quot; target=&quot;_NEW&quot;&gt;\nhttp://extraimago.com/image/L0Z&lt;/a&gt;","torrent":{"xt":"urn:btih:0a5577f9ad5d3efe469733608093c6cdbbc3dcf0","amp;dn":"The.Visitant.2014.BRRip.x264-MenaceIISociety","amp;tr":["udp%3A%2F%2Ftracker.openbittorrent.com%3A80","udp%3A%2F%2Fopen.demonii.com%3A1337","udp%3A%2F%2Ftracker.coppersurfer.tk%3A6969","udp%3A%2F%2Fexodus.desync.com%3A6969"],"infoHash":"0a5577f9ad5d3efe469733608093c6cdbbc3dcf0","infoHashBuffer":{"type":"Buffer","data":[10,85,119,249,173,93,62,254,70,151,51,96,128,147,198,205,187,195,220,240]},"announce":[],"urlList":[]}}